<svg width="320" height="200" viewBox="0 0 320 200" fill="none" xmlns="http://www.w3.org/2000/svg">
<path d="M120.263 26.425C125.519 17.325 132.267 8.59099 141.731 0.609985C123.111 7.85999 105.711 17.97 90.1806 30.53C57.4907 54.68 32.5706 89.8 21.6306 132.21C21.0306 134.54 20.4806 136.87 19.9606 139.19V139.21C19.8506 139.74 19.7307 140.27 19.6207 140.79C19.5647 141.06 19.5166 141.33 19.4616 141.601C19.2816 142.484 19.1016 143.37 18.9336 144.25C18.9126 144.365 18.8946 144.476 18.8736 144.59C18.7976 145 18.7306 145.41 18.6576 145.82C18.6056 146.09 18.5586 146.36 18.5136 146.621C18.4526 146.969 18.3966 147.312 18.3376 147.658C18.0216 149.531 17.7357 151.403 17.4797 153.274C17.4277 153.646 17.3756 154.017 17.3236 154.391C17.2626 154.833 17.2127 155.272 17.1607 155.712C17.1347 155.918 17.1047 156.125 17.0797 156.332C17.0817 156.331 17.0826 156.33 17.0846 156.329V156.332C16.6546 159.842 16.3346 163.342 16.1246 166.832L16.0816 167.736C17.2146 167.812 18.1136 168.746 18.1136 169.898C18.1136 171.1 17.1386 172.075 15.9366 172.075C15.9156 172.075 15.8966 172.069 15.8756 172.069L15.8547 172.512L15.7646 174.362V179.382H20.0247C20.0747 179.232 20.1447 179.082 20.2047 178.932C20.7047 177.772 21.2246 176.592 21.7946 175.442C24.0646 170.762 26.9046 166.382 30.1846 164.312C23.7046 155.972 24.9346 144.872 25.8246 140.502C25.8356 140.435 25.8496 140.375 25.8636 140.313C26.0006 139.704 26.1366 139.102 26.2826 138.492C26.6526 136.892 27.0326 135.302 27.4426 133.712C32.5626 113.892 40.8227 95.722 51.5627 79.602C40.4927 100.642 35.8826 118.642 33.4126 135.382C33.8426 135.192 34.2446 134.933 34.6926 134.792C69.8586 123.712 85.3797 105.868 95.3237 85.712H67.0027L98.6716 78.404C99.9236 75.472 101.096 72.504 102.231 69.512H85.7227L103.785 65.344C107.992 53.909 111.918 42.226 117.763 30.992H100.483L120.263 26.425Z" fill="black"/>
<path d="M15.7627 191.91C15.7627 191.91 17.2527 186.12 19.8827 179.72C19.9227 179.61 19.9727 179.49 20.0227 179.38H15.7627V191.91Z" fill="black"/>
<path d="M68.9653 168.388C66.6136 168.388 64.563 167.943 62.8135 167.054C61.064 166.165 59.6731 164.946 58.6406 163.398C57.6368 161.82 57.0489 159.999 56.8768 157.934L60.7486 157.676C60.9493 159.196 61.3939 160.487 62.0822 161.548C62.7705 162.609 63.6882 163.412 64.8354 163.957C66.0113 164.502 67.4166 164.774 69.0513 164.774C70.4853 164.774 71.7042 164.588 72.708 164.215C73.7118 163.842 74.4718 163.297 74.988 162.58C75.5329 161.863 75.8054 160.989 75.8054 159.956C75.8054 159.01 75.576 158.178 75.1171 157.461C74.6869 156.715 73.8408 156.041 72.5789 155.439C71.3457 154.808 69.5102 154.192 67.0724 153.589C64.7207 152.987 62.8422 152.327 61.4369 151.61C60.0603 150.893 59.0565 150.019 58.4255 148.986C57.8232 147.954 57.5221 146.678 57.5221 145.157C57.5221 143.437 57.9236 141.931 58.7267 140.64C59.5584 139.321 60.7342 138.303 62.2543 137.586C63.7743 136.84 65.5811 136.468 67.6747 136.468C69.9117 136.468 71.8333 136.898 73.4393 137.758C75.0454 138.59 76.3216 139.737 77.2681 141.2C78.2145 142.662 78.8024 144.326 79.0319 146.19L75.1601 146.448C74.988 145.215 74.5865 144.125 73.9556 143.179C73.3533 142.203 72.5216 141.443 71.4604 140.899C70.3993 140.354 69.1087 140.081 67.5887 140.081C65.6958 140.081 64.1901 140.54 63.0716 141.458C61.9531 142.347 61.3939 143.523 61.3939 144.985C61.3939 145.932 61.609 146.721 62.0392 147.351C62.498 147.954 63.3011 148.499 64.4482 148.986C65.5954 149.445 67.2445 149.947 69.3955 150.492C71.948 151.123 73.9699 151.883 75.4612 152.772C76.9813 153.632 78.0568 154.636 78.6877 155.783C79.3473 156.93 79.6772 158.235 79.6772 159.698C79.6772 161.476 79.2183 163.025 78.3005 164.344C77.3828 165.635 76.1209 166.639 74.5148 167.356C72.9087 168.044 71.0589 168.388 68.9653 168.388ZM92.7652 167.7C90.7002 167.7 89.1659 167.226 88.1621 166.28C87.187 165.334 86.6994 163.857 86.6994 161.849V139.565H90.313V161.763C90.313 162.795 90.5425 163.512 91.0014 163.914C91.4602 164.316 92.1629 164.516 93.1093 164.516H96.3788V167.7H92.7652ZM83.3439 148.083V144.899H96.3788V148.083H83.3439ZM109.499 168.216C107.405 168.216 105.57 167.728 103.992 166.753C102.415 165.778 101.196 164.402 100.336 162.623C99.4752 160.817 99.045 158.709 99.045 156.3C99.045 153.862 99.4752 151.754 100.336 149.976C101.196 148.198 102.415 146.821 103.992 145.846C105.57 144.871 107.405 144.383 109.499 144.383C111.592 144.383 113.414 144.871 114.962 145.846C116.54 146.821 117.758 148.198 118.619 149.976C119.479 151.754 119.909 153.862 119.909 156.3C119.909 158.709 119.479 160.817 118.619 162.623C117.758 164.402 116.54 165.778 114.962 166.753C113.414 167.728 111.592 168.216 109.499 168.216ZM109.499 164.774C111.592 164.774 113.213 164.029 114.36 162.537C115.536 161.017 116.124 158.938 116.124 156.3C116.124 153.661 115.536 151.596 114.36 150.105C113.213 148.585 111.592 147.825 109.499 147.825C107.405 147.825 105.77 148.585 104.595 150.105C103.419 151.596 102.831 153.661 102.831 156.3C102.831 158.938 103.419 161.017 104.595 162.537C105.77 164.029 107.405 164.774 109.499 164.774ZM124.834 167.7V144.899H128.018L128.19 150.664L127.846 150.535C128.132 148.585 128.749 147.165 129.695 146.276C130.67 145.358 131.961 144.899 133.567 144.899H135.804V148.341H133.61C132.463 148.341 131.502 148.556 130.728 148.986C129.982 149.388 129.409 150.004 129.007 150.836C128.634 151.639 128.448 152.672 128.448 153.933V167.7H124.834ZM141.032 174.153V170.969H143.656C144.459 170.969 145.047 170.84 145.42 170.582C145.821 170.353 146.122 169.965 146.323 169.42L147.14 167.27H145.893L137.547 144.899H141.505L148.302 163.914L154.798 144.899H158.756L149.507 170.582C149.076 171.815 148.431 172.719 147.571 173.292C146.71 173.866 145.52 174.153 144 174.153H141.032ZM174.736 168.388C172.011 168.388 169.616 167.757 167.552 166.495C165.487 165.205 163.881 163.369 162.733 160.989C161.586 158.608 161.013 155.769 161.013 152.471C161.013 149.173 161.586 146.333 162.733 143.953C163.881 141.544 165.487 139.694 167.552 138.403C169.616 137.113 172.011 136.468 174.736 136.468C178.435 136.468 181.303 137.4 183.34 139.264C185.376 141.128 186.71 143.666 187.341 146.878L183.426 147.136C182.996 144.957 182.078 143.236 180.672 141.974C179.267 140.712 177.288 140.081 174.736 140.081C172.786 140.081 171.065 140.583 169.573 141.587C168.111 142.562 166.964 143.982 166.132 145.846C165.3 147.681 164.884 149.89 164.884 152.471C164.884 155.052 165.3 157.26 166.132 159.096C166.964 160.931 168.111 162.337 169.573 163.312C171.065 164.287 172.786 164.774 174.736 164.774C177.403 164.774 179.468 164.086 180.931 162.709C182.393 161.304 183.311 159.411 183.684 157.031L187.599 157.289C187.226 159.497 186.494 161.433 185.405 163.097C184.315 164.76 182.866 166.065 181.06 167.011C179.282 167.929 177.174 168.388 174.736 168.388ZM198.75 168.216C196.398 168.216 194.52 167.671 193.115 166.581C191.738 165.491 191.05 163.971 191.05 162.021C191.05 160.071 191.623 158.537 192.77 157.418C193.918 156.3 195.739 155.511 198.234 155.052L206.322 153.546C206.322 151.625 205.863 150.191 204.945 149.244C204.056 148.298 202.708 147.825 200.901 147.825C199.324 147.825 198.076 148.183 197.158 148.9C196.241 149.588 195.61 150.592 195.266 151.912L191.437 151.61C191.867 149.459 192.899 147.724 194.534 146.405C196.198 145.057 198.32 144.383 200.901 144.383C203.826 144.383 206.063 145.215 207.612 146.878C209.161 148.513 209.935 150.779 209.935 153.675V163.097C209.935 163.613 210.021 163.986 210.193 164.215C210.394 164.416 210.71 164.516 211.14 164.516H212.043V167.7C211.928 167.728 211.742 167.743 211.484 167.743C211.226 167.771 210.953 167.786 210.666 167.786C209.634 167.786 208.788 167.628 208.128 167.313C207.497 166.968 207.039 166.452 206.752 165.764C206.465 165.047 206.322 164.115 206.322 162.968L206.752 163.054C206.551 164.029 206.063 164.918 205.289 165.721C204.515 166.495 203.554 167.112 202.407 167.571C201.26 168.001 200.041 168.216 198.75 168.216ZM199.094 165.032C200.614 165.032 201.905 164.746 202.966 164.172C204.056 163.57 204.888 162.767 205.461 161.763C206.035 160.731 206.322 159.583 206.322 158.321V156.687L198.922 158.063C197.373 158.35 196.298 158.795 195.696 159.397C195.122 159.971 194.835 160.731 194.835 161.677C194.835 162.738 195.208 163.57 195.954 164.172C196.728 164.746 197.775 165.032 199.094 165.032ZM216.125 167.7V144.899H219.437L219.566 150.707L219.136 150.32C219.423 148.972 219.925 147.868 220.642 147.007C221.359 146.118 222.219 145.459 223.223 145.028C224.255 144.598 225.359 144.383 226.535 144.383C228.285 144.383 229.719 144.77 230.837 145.545C231.984 146.319 232.83 147.366 233.375 148.685C233.949 149.976 234.236 151.424 234.236 153.03V167.7H230.622V154.063C230.622 152.657 230.45 151.481 230.106 150.535C229.79 149.56 229.274 148.828 228.557 148.341C227.84 147.825 226.908 147.567 225.761 147.567C224.011 147.567 222.563 148.126 221.416 149.244C220.297 150.334 219.738 151.94 219.738 154.063V167.7H216.125ZM245.459 167.7L237.156 144.899H241.114L247.739 164L254.364 144.899H258.321L250.019 167.7H245.459ZM267.901 168.216C265.549 168.216 263.67 167.671 262.265 166.581C260.888 165.491 260.2 163.971 260.2 162.021C260.2 160.071 260.774 158.537 261.921 157.418C263.068 156.3 264.889 155.511 267.384 155.052L275.472 153.546C275.472 151.625 275.013 150.191 274.095 149.244C273.206 148.298 271.858 147.825 270.052 147.825C268.474 147.825 267.227 148.183 266.309 148.9C265.391 149.588 264.76 150.592 264.416 151.912L260.587 151.61C261.017 149.459 262.05 147.724 263.685 146.405C265.348 145.057 267.47 144.383 270.052 144.383C272.977 144.383 275.214 145.215 276.763 146.878C278.311 148.513 279.086 150.779 279.086 153.675V163.097C279.086 163.613 279.172 163.986 279.344 164.215C279.545 164.416 279.86 164.516 280.29 164.516H281.194V167.7C281.079 167.728 280.892 167.743 280.634 167.743C280.376 167.771 280.104 167.786 279.817 167.786C278.785 167.786 277.938 167.628 277.279 167.313C276.648 166.968 276.189 166.452 275.902 165.764C275.615 165.047 275.472 164.115 275.472 162.968L275.902 163.054C275.701 164.029 275.214 164.918 274.44 165.721C273.665 166.495 272.704 167.112 271.557 167.571C270.41 168.001 269.191 168.216 267.901 168.216ZM268.245 165.032C269.765 165.032 271.055 164.746 272.116 164.172C273.206 163.57 274.038 162.767 274.612 161.763C275.185 160.731 275.472 159.583 275.472 158.321V156.687L268.073 158.063C266.524 158.35 265.448 158.795 264.846 159.397C264.273 159.971 263.986 160.731 263.986 161.677C263.986 162.738 264.359 163.57 265.104 164.172C265.879 164.746 266.925 165.032 268.245 165.032ZM293.494 168.216C291.458 168.216 289.722 167.886 288.288 167.226C286.883 166.567 285.779 165.663 284.976 164.516C284.202 163.34 283.757 162.007 283.642 160.515L287.428 160.257C287.658 161.634 288.245 162.738 289.192 163.57C290.138 164.373 291.572 164.774 293.494 164.774C295.043 164.774 296.276 164.531 297.193 164.043C298.14 163.527 298.613 162.709 298.613 161.591C298.613 160.989 298.47 160.487 298.183 160.085C297.896 159.684 297.337 159.34 296.505 159.053C295.673 158.737 294.44 158.436 292.806 158.149C290.626 157.748 288.905 157.26 287.643 156.687C286.41 156.084 285.521 155.353 284.976 154.493C284.46 153.604 284.202 152.557 284.202 151.352C284.202 149.316 284.947 147.653 286.439 146.362C287.93 145.043 290.052 144.383 292.806 144.383C294.67 144.383 296.233 144.727 297.495 145.416C298.785 146.075 299.789 146.964 300.506 148.083C301.252 149.173 301.739 150.377 301.969 151.696L298.183 151.955C298.011 151.152 297.695 150.449 297.237 149.847C296.778 149.216 296.175 148.728 295.43 148.384C294.684 148.011 293.795 147.825 292.762 147.825C291.128 147.825 289.923 148.14 289.149 148.771C288.374 149.402 287.987 150.205 287.987 151.18C287.987 151.926 288.159 152.543 288.504 153.03C288.876 153.489 289.464 153.876 290.267 154.192C291.07 154.478 292.146 154.736 293.494 154.966C295.817 155.367 297.624 155.855 298.914 156.429C300.205 157.002 301.108 157.705 301.625 158.537C302.141 159.368 302.399 160.386 302.399 161.591C302.399 162.996 301.997 164.201 301.194 165.205C300.42 166.18 299.359 166.925 298.011 167.442C296.692 167.958 295.186 168.216 293.494 168.216Z" fill="black"/>
</svg>
