<svg width="200" height="200" viewBox="0 0 200 200" fill="none" xmlns="http://www.w3.org/2000/svg">
<path d="M141.5 29.815C146.756 20.715 153.504 11.981 162.968 4C144.348 11.25 126.948 21.36 111.418 33.92C78.728 58.07 53.808 93.19 42.868 135.6C42.268 137.93 41.718 140.26 41.198 142.58V142.6C41.088 143.13 40.968 143.66 40.858 144.18C40.802 144.45 40.754 144.72 40.699 144.991C40.519 145.874 40.339 146.76 40.171 147.64C40.15 147.755 40.132 147.866 40.111 147.98C40.035 148.39 39.968 148.8 39.895 149.21C39.843 149.48 39.796 149.75 39.751 150.011C39.69 150.359 39.634 150.702 39.575 151.048C39.259 152.921 38.973 154.793 38.717 156.664C38.665 157.036 38.613 157.407 38.561 157.781C38.5 158.223 38.45 158.662 38.398 159.102C38.372 159.308 38.342 159.515 38.317 159.722C38.319 159.721 38.32 159.72 38.322 159.719V159.722C37.892 163.232 37.572 166.732 37.362 170.222L37.319 171.126C38.452 171.202 39.351 172.136 39.351 173.288C39.351 174.49 38.376 175.465 37.174 175.465C37.153 175.465 37.134 175.459 37.113 175.459L37.092 175.902L37.002 177.752V182.772H41.262C41.312 182.622 41.382 182.472 41.442 182.322C41.942 181.162 42.462 179.982 43.032 178.832C45.302 174.152 48.142 169.772 51.422 167.702C44.942 159.362 46.172 148.262 47.062 143.892C47.073 143.825 47.087 143.765 47.101 143.703C47.238 143.094 47.374 142.492 47.52 141.882C47.89 140.282 48.27 138.692 48.68 137.102C53.8 117.282 62.06 99.112 72.8 82.992C61.73 104.032 57.1199 122.032 54.6499 138.772C55.0799 138.582 55.4819 138.323 55.9299 138.182C91.0959 127.102 106.617 109.258 116.561 89.102H88.24L119.909 81.794C121.161 78.862 122.333 75.894 123.468 72.902H106.96L125.022 68.734C129.229 57.299 133.155 45.616 139 34.382H121.72L141.5 29.815Z" fill="black"/>
<path d="M37 195.302C37 195.302 38.49 189.512 41.12 183.112C41.16 183.002 41.21 182.882 41.26 182.772H37V195.302Z" fill="black"/>
</svg>
